<?xml version="1.0" standalone="no"?>
<!DOCTYPE svg PUBLIC "-//W3C//DTD SVG 20010904//EN"
 "http://www.w3.org/TR/2001/REC-SVG-20010904/DTD/svg10.dtd">
<svg version="1.0" xmlns="http://www.w3.org/2000/svg"
 width="1500.000000pt" height="1500.000000pt" viewBox="0 0 1500.000000 1500.000000"
 preserveAspectRatio="xMidYMid meet">

<g transform="translate(0.000000,1500.000000) scale(0.100000,-0.100000)"
fill="#000000" stroke="none">
<path d="M9775 14521 c-356 -42 -678 -198 -949 -461 -65 -63 -147 -151 -181
-195 -153 -196 -413 -630 -769 -1284 l-128 -233 21 -77 c49 -182 56 -257 55
-606 -1 -290 -3 -344 -22 -445 -11 -63 -19 -116 -18 -118 11 -10 284 469 611
1068 389 714 637 1131 770 1297 219 273 500 414 799 400 133 -6 201 -23 321
-81 231 -111 400 -322 472 -592 23 -88 26 -117 26 -259 0 -208 -12 -262 -163
-715 -212 -635 -398 -1088 -608 -1478 -43 -81 -88 -172 -99 -202 -131 -355 67
-764 431 -887 l81 -28 1490 -5 1490 -5 80 -23 c44 -12 118 -41 165 -64 69 -33
101 -58 175 -132 49 -50 105 -117 123 -148 164 -278 193 -678 77 -1036 -64
-198 -137 -316 -281 -457 -88 -86 -104 -118 -104 -208 0 -33 12 -75 40 -140
63 -148 81 -237 87 -428 6 -191 -8 -305 -58 -454 -73 -219 -196 -378 -372
-479 -64 -38 -115 -99 -133 -164 -19 -65 -15 -88 36 -223 127 -339 117 -752
-25 -1041 -98 -198 -247 -331 -443 -394 -106 -34 -159 -73 -195 -144 l-28 -55
7 -170 c7 -196 -7 -310 -56 -457 -59 -175 -134 -293 -279 -439 -245 -245 -595
-410 -1075 -509 -338 -69 -780 -78 -1199 -24 l-118 15 -82 -77 c-45 -42 -98
-88 -118 -102 -35 -25 -36 -27 -47 -131 -7 -58 -23 -150 -36 -204 -13 -53 -22
-97 -20 -97 2 0 67 -11 146 -25 1020 -177 2031 -16 2698 430 497 332 801 831
837 1372 l6 91 76 48 c167 106 299 237 413 409 253 382 342 883 246 1397 l-21
117 63 65 c336 345 498 930 414 1501 -8 55 -21 125 -29 157 l-15 56 66 99
c166 246 277 558 315 882 15 131 7 445 -15 559 -42 224 -115 427 -212 588
-212 354 -516 571 -929 665 l-100 23 -1469 6 c-1345 5 -1470 6 -1479 21 -8 13
16 68 110 255 242 477 400 869 621 1544 156 475 178 588 169 894 -7 271 -51
461 -157 681 -80 165 -160 277 -299 416 -227 226 -477 361 -785 420 -114 22
-317 32 -421 20z"/>
<path d="M5855 13261 c-356 -42 -678 -198 -949 -461 -181 -175 -269 -297 -514
-706 -147 -246 -249 -429 -527 -939 -623 -1146 -848 -1466 -1240 -1771 -293
-227 -697 -501 -1498 -1015 -505 -325 -593 -387 -687 -486 -81 -84 -124 -151
-158 -245 l-27 -73 -3 -2315 c-2 -2073 -1 -2323 13 -2393 38 -190 109 -321
250 -462 74 -74 122 -112 185 -148 153 -85 193 -94 1040 -223 l775 -117 180
-112 c1174 -731 2315 -1173 3330 -1290 929 -106 1822 67 2425 470 497 332 801
831 837 1372 l6 91 76 48 c167 106 299 237 413 409 253 382 342 883 246 1397
l-21 117 63 65 c336 345 498 930 414 1501 -8 55 -21 125 -29 157 l-15 56 66
99 c166 246 277 558 315 882 15 131 7 445 -15 559 -42 224 -115 427 -212 588
-212 354 -516 571 -929 665 l-100 23 -1469 6 c-1345 5 -1470 6 -1479 21 -8 13
16 68 110 255 242 477 400 869 621 1544 156 475 178 588 169 894 -7 271 -51
461 -157 681 -80 165 -160 277 -299 416 -227 226 -477 361 -785 420 -114 22
-317 32 -421 20z m360 -675 c93 -26 233 -97 312 -160 145 -116 257 -294 310
-492 23 -88 26 -117 26 -259 0 -208 -12 -262 -163 -715 -212 -635 -398 -1088
-608 -1478 -43 -81 -88 -172 -99 -202 -131 -355 67 -764 431 -887 l81 -28
1490 -5 1490 -5 80 -23 c44 -12 118 -41 165 -64 69 -33 101 -58 175 -132 49
-50 105 -117 123 -148 164 -278 193 -678 77 -1036 -64 -198 -137 -316 -281
-457 -88 -86 -104 -118 -104 -208 0 -33 12 -75 40 -140 63 -148 81 -237 87
-428 6 -191 -8 -305 -58 -454 -73 -219 -196 -378 -372 -479 -64 -38 -115 -99
-133 -164 -19 -65 -15 -88 36 -223 127 -339 117 -752 -25 -1041 -98 -198 -247
-331 -443 -394 -106 -34 -159 -73 -195 -144 l-28 -55 7 -170 c5 -134 3 -191
-10 -270 -18 -109 -61 -246 -102 -327 -120 -238 -356 -455 -644 -595 -254
-123 -581 -214 -915 -255 -168 -20 -661 -17 -850 6 -989 119 -2018 530 -3193
1274 -79 50 -158 96 -175 101 -29 9 -625 102 -1357 211 -151 22 -295 48 -319
57 -54 20 -115 73 -144 127 l-22 41 -3 2229 c-2 2090 -1 2230 15 2248 25 28
196 142 718 478 951 613 1381 917 1633 1155 240 226 497 580 799 1100 87 148
174 305 436 785 375 686 613 1086 742 1247 162 202 370 338 590 387 89 20 294
15 380 -8z"/>
</g>
</svg>
